<svg width="48" height="53" viewBox="0 0 48 53" fill="none" xmlns="http://www.w3.org/2000/svg">
<g filter="url(#filter0_d_390_1930)">
<path d="M12.4113 13.367C12.3963 19.7054 17.4467 24.7303 23.8505 24.7488V24.7507C30.2245 24.7673 35.3606 19.7424 35.4016 13.4502C35.4426 7.17829 30.2991 2.02225 23.981 2.00007C17.5418 1.9779 12.4262 7.00466 12.4113 13.367Z" fill="white"/>
<path d="M20.4092 46.9966C21.5993 46.9949 22.7893 46.9932 23.9794 46.9932L23.9813 46.9951H35.9529C40.0551 46.9285 43.4611 44.2879 43.8466 40.5373C44.3069 36.0425 43.7754 31.6364 41.6495 27.5405C40.463 25.2543 38.6721 23.6311 36.1157 22.9146C34.3603 22.4216 32.6872 22.3754 31.1695 23.5997C30.7147 23.9672 30.1945 24.2627 29.6817 24.5508C26.6874 26.2349 23.5864 26.6911 20.2796 25.4538C19.1158 25.0181 18.0918 24.372 17.0654 23.7244C16.8127 23.5649 16.5598 23.4054 16.3047 23.2489C15.631 22.8371 14.9554 22.5508 14.1226 22.5878C10.6286 22.741 8.13776 24.4196 6.46656 27.3835C5.10978 29.7879 4.53525 32.4175 4.23206 35.1174C4.0393 36.8292 3.86339 38.554 4.15348 40.2658C4.85902 44.4393 7.87952 46.96 12.195 46.9876C14.9331 47.0044 17.6712 47.0005 20.4092 46.9966Z" fill="white"/>
</g>
<defs>
<filter id="filter0_d_390_1930" x="0" y="0" width="48" height="53" filterUnits="userSpaceOnUse" color-interpolation-filters="sRGB">
<feFlood flood-opacity="0" result="BackgroundImageFix"/>
<feColorMatrix in="SourceAlpha" type="matrix" values="0 0 0 0 0 0 0 0 0 0 0 0 0 0 0 0 0 0 127 0" result="hardAlpha"/>
<feOffset dy="2"/>
<feGaussianBlur stdDeviation="2"/>
<feComposite in2="hardAlpha" operator="out"/>
<feColorMatrix type="matrix" values="0 0 0 0 0 0 0 0 0 0 0 0 0 0 0 0 0 0 0.5 0"/>
<feBlend mode="normal" in2="BackgroundImageFix" result="effect1_dropShadow_390_1930"/>
<feBlend mode="normal" in="SourceGraphic" in2="effect1_dropShadow_390_1930" result="shape"/>
</filter>
</defs>
</svg>
